<?xml version="1.0" encoding="UTF-8"?>
<!-- Created with Inkscape (http://www.inkscape.org/) -->
<svg width="33.672" height="33.027" version="1.1" viewBox="0 0 8.909 8.7385" xmlns="http://www.w3.org/2000/svg">
 <g transform="translate(-65.009 -63.409)">
  <g style="stroke-width:.26458" aria-label="gd">
   <path d="m66.885 65.172 1.6071 0.75445 0.96115-0.48574v1.1627l-0.93015-0.18086v2.346q0 0.56842 0.06718 0.76995 0.08785 0.26354 0.36689 0.60976 0.44957 0.57359 0.44957 0.82163 0 0.24804-0.2377 0.47541-0.23254 0.22737-1.2505 0.70278-0.34622-0.12402-0.66144-0.18603-0.31522-0.05684-0.59943-0.05684-0.68211 0-1.5761 0.24287l-0.07234-0.17569 1.2195-1.4262-1.2195-0.87847v-3.7413q1.0232-0.21703 1.8758-0.75445zm0.58909 1.2402-1.4159-0.48574v3.3847l0.76996 0.55809 0.64594-0.77512zm-1.5554 4.8006q0.67177-0.10852 1.0852-0.10852 0.37206 0 0.74928 0.09818 0.38239 0.09818 0.76995 0.29971l0.21187-0.13435q-0.69761-0.6511-0.94565-1.0542-0.24804-0.40306-0.31522-0.87847z"/>
   <path d="m69.918 63.41 3.5087 2.4132q0.08268-0.1912 0.18086-0.28938 0.10335-0.09818 0.31005-0.18603v0.21187q-0.10335 0.13952-0.13435 0.25321-0.03101 0.11368-0.03101 0.46507v3.4777q-0.65627 0.24804-0.97665 0.43407-0.32038 0.18086-0.69244 0.49091-0.60976-0.3979-1.08-0.57876t-1.0128-0.24804v-0.09818q0.18603-0.16019 0.2377-0.32038 0.05684-0.16536 0.05684-0.67694v-2.7078q0.70794-0.19636 1.0025-0.4444l-1.3694-0.93531zm2.7801 3.1625-1.0593-0.73378q-0.14469 0.11885-0.29455 0.2067v3.1935l1.3539 0.59943z"/>
  </g>
 </g>
</svg>
